<svg width="864" height="282" viewBox="0 0 864 282" fill="none" xmlns="http://www.w3.org/2000/svg">
<g clip-path="url(#clip0_10_13)">
<g clip-path="url(#clip1_10_13)">
<path d="M106.405 0.0249023H114.089C140.762 0.604748 167.001 11.3319 185.847 30.3219C178.889 37.425 171.785 44.2382 164.972 51.3413C154.389 41.7738 141.632 34.3808 127.715 31.7715C107.13 27.4226 84.9503 31.3366 67.6993 43.0785C48.8537 55.4002 36.0966 76.2747 33.3423 98.5987C30.298 120.633 36.5315 143.827 50.8832 160.932C64.655 177.603 85.6751 188.04 107.42 188.765C127.715 189.924 148.881 183.691 163.667 169.485C175.264 159.483 180.628 144.262 182.368 129.476C158.303 129.476 134.239 129.62 110.174 129.476V99.6135H211.506C216.725 131.65 209.187 167.745 184.832 190.649C168.596 206.885 146.126 216.452 123.221 218.337C101.042 220.511 78.1369 216.307 58.4215 205.58C34.7919 192.969 15.9463 171.659 6.66843 146.581C-2.02955 123.532 -2.17452 97.439 5.9436 74.2452C13.3369 53.0808 27.5436 34.3808 45.8094 21.3342C63.3503 8.43267 84.6604 1.32956 106.405 0.0249023Z" fill="black"/>
<path d="M687.721 7.56287H718.744V214.568C708.451 214.568 698.013 214.713 687.721 214.423C687.866 145.566 687.721 76.5645 687.721 7.56287Z" fill="black"/>
<path d="M280.51 79.3189C299.646 75.6948 320.376 79.7538 336.177 91.2057C350.529 101.353 360.532 117.299 363.576 134.694C367.49 154.844 362.561 176.878 349.514 192.824C335.452 210.654 312.403 220.221 289.933 218.772C269.348 217.612 249.342 207.32 237.165 190.504C223.393 171.949 220.059 146.436 227.597 124.692C235.136 101.353 256.446 83.5228 280.51 79.3189ZM284.859 106.862C277.031 108.891 269.783 113.385 264.564 119.763C250.502 136.579 251.372 163.976 266.883 179.632C275.726 188.62 289.063 192.824 301.385 190.359C312.838 188.33 322.84 180.647 328.349 170.5C337.917 153.249 335.162 129.476 320.521 115.994C311.098 107.296 297.326 103.672 284.859 106.862Z" fill="black"/>
<path d="M434.174 79.3189C456.064 75.115 479.984 81.2034 496.365 96.5693C523.039 120.488 525.938 165.281 503.179 192.824C489.407 210.219 467.082 219.787 445.047 218.772C424.027 218.192 403.297 207.755 390.83 190.504C376.768 171.514 373.723 145.421 381.697 123.242C389.67 100.628 410.545 83.3778 434.174 79.3189ZM438.523 106.862C430.695 108.891 423.447 113.385 418.228 119.618C404.311 136.144 404.891 163.107 419.823 178.907C428.666 188.33 442.438 192.969 455.195 190.359C466.502 188.185 476.65 180.647 482.158 170.5C491.581 153.104 488.827 129.331 474.04 115.849C464.617 107.152 450.846 103.672 438.523 106.862Z" fill="black"/>
<path d="M564.499 87.7267C581.17 77.2895 603.35 74.3902 621.326 83.3778C626.98 85.8422 631.619 90.0461 636.113 94.25C636.258 90.336 636.113 86.2771 636.258 82.2181C645.971 82.3631 655.683 82.2181 665.541 82.3631V210.219C665.396 229.499 660.467 249.939 646.55 264C631.329 279.511 607.989 284.294 586.969 281.105C564.499 277.771 544.929 261.391 536.231 240.661C544.929 236.457 554.062 233.123 563.05 229.209C568.124 241.096 578.416 251.243 591.318 253.563C604.22 255.882 619.152 252.693 627.56 241.966C636.548 230.949 636.548 215.873 636.113 202.391C629.444 208.915 621.761 214.713 612.483 216.887C592.333 222.541 570.153 215.583 554.642 201.956C538.985 188.33 529.707 167.311 530.577 146.436C531.012 122.807 544.349 100.048 564.499 87.7267ZM594.507 106.282C585.664 107.731 577.401 112.66 571.748 119.473C558.121 135.709 558.121 161.657 571.893 177.603C579.721 187.025 592.333 192.244 604.51 190.939C615.962 189.78 626.545 182.532 632.199 172.529C641.766 155.569 640.172 132.52 627.27 117.734C619.297 108.601 606.54 104.107 594.507 106.282Z" fill="black"/>
<path d="M756 95.1196C773.396 78.8839 800.215 73.3754 822.54 81.9281C843.705 89.901 857.187 110.051 864 130.78C832.542 143.827 801.23 156.728 769.772 169.775C774.121 178.038 780.789 185.576 789.777 188.62C802.389 193.114 817.466 191.519 828.048 183.111C832.252 179.922 835.587 175.718 838.776 171.659C846.749 177.023 854.722 182.241 862.695 187.605C851.388 204.566 832.397 216.452 811.957 218.337C789.342 221.091 765.278 212.393 750.636 194.708C726.572 166.876 728.891 120.198 756 95.1196ZM771.511 121.938C766.583 129.041 764.553 137.738 764.698 146.291C785.718 137.593 806.738 128.896 827.758 120.053C824.279 111.935 815.871 107.006 807.318 105.702C793.546 103.237 779.195 110.631 771.511 121.938Z" fill="black"/>
</g>
</g>
<defs>
<clipPath id="clip0_10_13">
<rect width="864" height="282" fill="white"/>
</clipPath>
<clipPath id="clip1_10_13">
<rect width="864" height="282" fill="white"/>
</clipPath>
</defs>
</svg>
